<svg xmlns="http://www.w3.org/2000/svg" viewBox="0 0 32 32">
  <defs>
    <linearGradient id="g" x1="0%" y1="0%" x2="100%" y2="100%">
      <stop offset="0%" style="stop-color:#00e676"/>
      <stop offset="100%" style="stop-color:#a78bfa"/>
    </linearGradient>
  </defs>
  <rect width="32" height="32" rx="8" fill="#060912"/>
  <path d="M23.5 19.3c-.4-.2-2.4-1.2-2.8-1.3-.4-.1-.6-.2-.9.2-.3.4-1 1.3-1.3 1.6-.2.3-.5.3-.9.1-.4-.2-1.7-.6-3.3-2-.1-.1-.3-.3-.4-.4-1.1-1.1-1.9-2.3-2.1-2.7-.2-.4 0-.6.2-.8l.6-.7c.2-.2.3-.4.4-.7.1-.3.1-.5 0-.7-.1-.2-.9-2.2-1.3-3-.3-.7-.7-.6-.9-.6h-.8c-.3 0-.7.1-1.1.5-.4.4-1.4 1.4-1.4 3.4s1.5 4 1.7 4.3c.2.3 2.9 4.4 7 6.1 1 .4 1.7.7 2.3.9 1 .3 1.9.3 2.6.2.8-.1 2.4-1 2.7-1.9.3-.9.3-1.8.2-1.9-.1-.2-.4-.3-.8-.5z" fill="url(#g)"/>
  <path d="M16 2C8.3 2 2 8.3 2 16c0 2.9.8 5.6 2.1 7.9L2 30l6.4-1.7c2.2 1.2 4.8 1.9 7.5 1.9 7.7 0 14-6.3 14-14S23.7 2 16 2zm0 25.8c-2.6 0-5-.7-7.1-1.9l-.5-.3-5 1.3 1.3-4.9-.3-.5C3.9 20.3 3 18.3 3 16 3 8.8 8.8 3 16 3s13 5.8 13 13-5.8 13-13 13z" fill="url(#g)" opacity=".7"/>
</svg>
